<svg xmlns="http://www.w3.org/2000/svg" viewBox="0 0 512 512" fill="none">
  <rect width="512" height="512" rx="96" fill="#14b8a6"/>
  <g transform="translate(96, 96) scale(0.625)">
    <path d="M226.5 92.9c14.3 42.9-.3 86.2-32.6 96.8s-70.1-15.6-84.4-58.5s.3-86.2 32.6-96.8s70.1 15.6 84.4 58.5zM100.4 198.6c18.9 32.4 14.3 70.1-10.2 84.1s-59.7-.9-78.5-33.3S-2.7 179.3 21.8 165.3s59.7 .9 78.5 33.3zM69.2 401.2C121.6 259.9 214.7 224 256 224s googling34.4 35.9 186.8 177.2c-3.8 9.2-8.6 17.9-14.2 25.9c-23.1 33.3-57.3 53.6-93.8 53.6H177.2c-36.5 0-70.7-20.3-93.8-53.6c-5.6-8-10.4-16.7-14.2-25.9zM307.5 92.9c-14.3 42.9 .3 86.2 32.6 96.8s70.1-15.6 84.4-58.5s-.3-86.2-32.6-96.8s-70.1 15.6-84.4 58.5zM411.6 198.6c-18.9 32.4-14.3 70.1 10.2 84.1s59.7-.9 78.5-33.3s14.3-70.1-10.2-84.1s-59.7 .9-78.5 33.3z" fill="white"/>
  </g>
</svg>
